<svg width="125" height="157" viewBox="0 0 125 157" fill="none" xmlns="http://www.w3.org/2000/svg">
<circle cx="58.5" cy="98.5" r="58.5" fill="#E57B1C"/>
<circle cx="66.5" cy="92.5" r="58.5" fill="#FFAA56"/>
<circle cx="109" cy="12" r="10" fill="#E57B1C"/>
<circle cx="111" cy="10" r="10" fill="#FFAA56"/>
<path d="M16.0801 90.9999V64.9199H32.5201V69.8799L21 68.9999C21 68.9999 20.114 73.911 21.9601 75.9199C24.3489 78.5194 31.0001 75.9199 31.0001 75.9199V80.8799H21.9601V90.9999H16.0801Z" fill="#481A1A"/>
<path d="M47.3366 91.4799C43.95 91.4799 41.3633 90.4799 39.5766 88.4799C37.79 86.4799 36.8966 83.2933 36.8966 78.9199V64.9199H42.8166V79.5199C42.8166 82.0799 43.2033 83.8666 43.9766 84.8799C44.75 85.8933 47.3366 89.5999 47.3366 89.5999C47.3366 89.5999 49.9366 85.8933 50.7366 84.8799C51.5366 83.8666 51.9366 82.0799 51.9366 79.5199V64.9199H57.6166V78.9199C57.6166 83.2933 56.7366 86.4799 54.9766 88.4799C53.2433 90.4799 50.6966 91.4799 47.3366 91.4799Z" fill="#481A1A"/>
<path d="M63.6582 90.9999V64.9199H69.6982C69.6982 64.9199 71.4862 72.6459 74 76.9599C75.6475 79.7871 79.0582 83.6399 79.0582 83.6399H79.2182C79.1115 82.2533 78.9649 80.7066 78.7782 78.9999C78.5915 77.2933 78.4982 75.6666 78.4982 74.1199V64.9199H84.0982V90.9999H78.0582L71.2582 77.9999L68.6982 72.3199H68.5382C68.6715 73.7599 68.8182 75.3066 68.9782 76.9599C69.1649 78.6133 69.2582 80.2133 69.2582 81.7599V90.9999H63.6582Z" fill="#481A1A"/>
<path d="M90.2598 90.9999V64.9199H97.6198C100.286 64.9199 102.593 65.3733 104.54 66.2799C106.486 67.1866 107.993 68.5999 109.06 70.5199C110.153 72.4133 110.7 74.8533 110.7 77.8399C110.7 80.8266 110.166 83.2933 109.1 85.2399C108.033 87.1866 106.54 88.6399 104.62 89.5999C102.726 90.5333 100.5 90.9999 97.9398 90.9999H90.2598ZM96.1398 86.2399H97.2598C98.7531 86.2399 100.046 85.9733 101.14 85.4399C102.26 84.9066 103.126 84.0266 103.74 82.7999C104.353 81.5733 102 77.9999 102 77.9999C102 77.9999 104.353 74.1333 103.74 72.9599C103.126 71.7599 102.26 70.9199 101.14 70.4399C100.046 69.9333 98.7531 69.6799 97.2598 69.6799H96.1398V86.2399Z" fill="#481A1A"/>
<path d="M40.4005 128L35.5605 101.92C35.5605 101.92 38.8902 103.698 40.4005 105.5C42.6904 108.231 43.4005 114.12 43.4005 114.12C43.5605 115.48 43.7339 116.853 43.9205 118.24C44.1072 119.6 44.2805 120.973 44.4405 122.36H44.6005C44.8672 120.973 45.1205 119.6 45.3605 118.24C45.6272 116.853 45.8939 115.48 46.1605 114.12L48.9605 101.92H53.9605L56.7605 114.12C57.0272 115.427 57.2805 116.773 57.5205 118.16C57.7872 119.547 58.0539 120.947 58.3205 122.36H58.4805C58.6672 120.947 58.8405 119.56 59.0005 118.2C59.1872 116.813 59.3739 115.453 59.5605 114.12C59.5605 114.12 60.1347 108.252 62.3605 105.5C63.7998 103.72 67.0005 101.92 67.0005 101.92L62.3605 128H54.9605L52.4005 116.16C52.1872 115.147 51.9872 114.133 51.8005 113.12C51.6405 112.08 51.4939 111.08 51.3605 110.12H51.2005C51.0405 111.08 50.8672 112.08 50.6805 113.12C50.5205 114.133 50.3339 115.147 50.1205 116.16L47.6805 128H40.4005Z" fill="white" fill-opacity="0.7"/>
<path d="M76.7396 114.8L76.0996 117.2C76.0996 117.2 77.6472 115.475 78.9396 115.5C80.192 115.524 81.6596 117.2 81.6596 117.2L81.0596 114.8C80.7129 113.493 80.3529 112.107 79.9796 110.64C79.6329 109.173 79.2863 107.76 78.9396 106.4H78.7796C78.4596 107.787 78.1263 109.213 77.7796 110.68C77.4596 112.12 77.1129 113.493 76.7396 114.8ZM67.2996 128L75.4596 101.92H82.5396L90.6996 128H84.4596L82.8596 121.8C82.8596 121.8 80.6081 123.482 78.9396 123.5C77.228 123.519 74.8996 121.8 74.8996 121.8L73.2996 128H67.2996Z" fill="white" fill-opacity="0.7"/>
<path d="M97.3262 128V118.72L89.4462 101.92H95.7662L98.0862 107.92C98.4595 108.907 98.8195 109.867 99.1662 110.8C99.5128 111.707 99.8595 112.667 100.206 113.68H100.366C100.74 112.667 101.113 111.707 101.486 110.8C101.86 109.867 102.22 108.907 102.566 107.92L104.926 101.92H111.086L103.206 118.72V128C103.206 128 101.863 124.966 100.206 125C98.5825 125.033 97.3262 128 97.3262 128Z" fill="white" fill-opacity="0.7"/>
</svg>
