<svg width="80" height="80" viewBox="0 0 80 80" fill="none" xmlns="http://www.w3.org/2000/svg">
<path d="M40.0003 6.66699C35.6229 6.66699 31.2884 7.52918 27.2442 9.20434C23.2 10.8795 19.5254 13.3348 16.4301 16.4301C10.1789 22.6813 6.66699 31.1598 6.66699 40.0003C6.66699 54.7337 16.2337 67.2337 29.467 71.667C31.1337 71.9337 31.667 70.9003 31.667 70.0003V64.367C22.4337 66.367 20.467 59.9003 20.467 59.9003C18.9337 56.0337 16.767 55.0003 16.767 55.0003C13.7337 52.9337 17.0003 53.0003 17.0003 53.0003C20.3337 53.2337 22.1003 56.4337 22.1003 56.4337C25.0003 61.5003 29.9003 60.0003 31.8003 59.2003C32.1003 57.0337 32.967 55.567 33.9003 54.7337C26.5003 53.9003 18.7337 51.0337 18.7337 38.3337C18.7337 34.6337 20.0003 31.667 22.167 29.3003C21.8337 28.467 20.667 25.0003 22.5003 20.5003C22.5003 20.5003 25.3003 19.6003 31.667 23.9003C34.3003 23.167 37.167 22.8003 40.0003 22.8003C42.8337 22.8003 45.7003 23.167 48.3337 23.9003C54.7003 19.6003 57.5003 20.5003 57.5003 20.5003C59.3337 25.0003 58.167 28.467 57.8337 29.3003C60.0003 31.667 61.267 34.6337 61.267 38.3337C61.267 51.067 53.467 53.867 46.0337 54.7003C47.2337 55.7337 48.3337 57.767 48.3337 60.867V70.0003C48.3337 70.9003 48.867 71.967 50.567 71.667C63.8003 67.2003 73.3337 54.7337 73.3337 40.0003C73.3337 35.6229 72.4715 31.2884 70.7963 27.2442C69.1212 23.2 66.6658 19.5254 63.5705 16.4301C60.4753 13.3348 56.8006 10.8795 52.7564 9.20434C48.7123 7.52918 44.3777 6.66699 40.0003 6.66699Z" fill="#F2902F"/>
</svg>
