<svg width="95" height="119" viewBox="0 0 95 119" fill="none" xmlns="http://www.w3.org/2000/svg">
<circle cx="44.3408" cy="74.6591" r="44.3408" fill="#E57B1C"/>
<circle cx="50.4042" cy="70.1115" r="44.3408" fill="#F2902F"/>
<circle cx="82.6177" cy="9.09549" r="7.57962" fill="#E57B1C"/>
<circle cx="84.1333" cy="7.57962" r="7.57962" fill="#F2902F"/>
<path d="M12.1885 68.9744V49.2068H24.6494V52.9663L15.9176 52.2993C15.9176 52.2993 15.246 56.0217 16.6453 57.5444C18.4559 59.5146 23.4973 57.5444 23.4973 57.5444V61.3039H16.6453V68.9744H12.1885Z" fill="#481A1A"/>
<path d="M35.8798 69.3383C33.3128 69.3383 31.3522 68.5803 29.998 67.0644C28.6437 65.5484 27.9666 63.1331 27.9666 59.8183V49.2068H32.4538V60.273C32.4538 62.2134 32.7468 63.5676 33.333 64.3357C33.9192 65.1038 35.8798 67.9133 35.8798 67.9133C35.8798 67.9133 37.8505 65.1038 38.4568 64.3357C39.0632 63.5676 39.3664 62.2134 39.3664 60.273V49.2068H43.6716V59.8183C43.6716 63.1331 43.0046 65.5484 41.6706 67.0644C40.3568 68.5803 38.4265 69.3383 35.8798 69.3383Z" fill="#481A1A"/>
<path d="M48.2509 68.9744V49.2068H52.829C52.829 49.2068 54.1842 55.0628 56.0896 58.3326C57.3383 60.4756 59.9235 63.3958 59.9235 63.3958H60.0448C59.9639 62.3448 59.8527 61.1725 59.7113 59.8789C59.5698 58.5853 59.499 57.3523 59.499 56.18V49.2068H63.7436V68.9744H59.1655L54.0114 59.1209L52.071 54.8157H51.9497C52.0508 55.9072 52.162 57.0795 52.2832 58.3326C52.4247 59.5858 52.4955 60.7985 52.4955 61.9709V68.9744H48.2509Z" fill="#481A1A"/>
<path d="M68.4138 68.9744V49.2068H73.9924C76.0137 49.2068 77.762 49.5504 79.2375 50.2376C80.713 50.9248 81.855 51.9961 82.6635 53.4514C83.4922 54.8864 83.9066 56.7359 83.9066 58.9997C83.9066 61.2634 83.5023 63.1331 82.6938 64.6086C81.8854 66.0841 80.7535 67.1856 79.2982 67.9133C77.8631 68.6207 76.1754 68.9744 74.235 68.9744H68.4138ZM72.8707 65.3665H73.7196C74.8515 65.3665 75.8318 65.1644 76.6605 64.7602C77.5094 64.3559 78.1663 63.6889 78.6312 62.7591C79.0961 61.8294 77.3125 59.1209 77.3125 59.1209C77.3125 59.1209 79.0961 56.1901 78.6312 55.3008C78.1663 54.3912 77.5094 53.7546 76.6605 53.3907C75.8318 53.0067 74.8515 52.8147 73.7196 52.8147H72.8707V65.3665Z" fill="#481A1A"/>
<path d="M30.6217 97.0191L26.9531 77.2515C26.9531 77.2515 29.4768 78.5994 30.6217 79.965C32.3573 82.0353 32.8955 86.4986 32.8955 86.4986C33.0168 87.5294 33.1482 88.5704 33.2897 89.6214C33.4312 90.6522 33.5626 91.6932 33.6838 92.7442H33.8051C34.0072 91.6932 34.1992 90.6522 34.3812 89.6214C34.5833 88.5704 34.7854 87.5294 34.9875 86.4986L37.1098 77.2515H40.8996L43.0219 86.4986C43.224 87.489 43.4161 88.5097 43.598 89.5608C43.8001 90.6118 44.0022 91.673 44.2043 92.7442H44.3256C44.4671 91.673 44.5985 90.6219 44.7197 89.5911C44.8612 88.54 45.0027 87.5092 45.1442 86.4986C45.1442 86.4986 45.5794 82.0509 47.2665 79.965C48.3574 78.6162 50.7834 77.2515 50.7834 77.2515L47.2665 97.0191H41.6576L39.7172 88.0448C39.5555 87.2768 39.4039 86.5087 39.2624 85.7406C39.1412 84.9524 39.03 84.1944 38.9289 83.4668H38.8076C38.6864 84.1944 38.555 84.9524 38.4135 85.7406C38.2922 86.5087 38.1507 87.2768 37.989 88.0448L36.1396 97.0191H30.6217Z" fill="white" fill-opacity="0.7"/>
<path d="M58.1653 87.014L57.6802 88.8331C57.6802 88.8331 58.8532 87.5258 59.8328 87.5446C60.7821 87.5628 61.8945 88.8331 61.8945 88.8331L61.4397 87.014C61.1769 86.0236 60.9041 84.9726 60.6211 83.8609C60.3583 82.7492 60.0956 81.678 59.8328 80.6471H59.7115C59.469 81.6982 59.2163 82.7795 58.9536 83.8912C58.711 84.9827 58.4483 86.0236 58.1653 87.014ZM51.0101 97.0191L57.1951 77.2515H62.5615L68.7464 97.0191H64.0167L62.804 92.3197C62.804 92.3197 61.0975 93.5945 59.8328 93.6083C58.5355 93.6224 56.7706 92.3197 56.7706 92.3197L55.5579 97.0191H51.0101Z" fill="white" fill-opacity="0.7"/>
<path d="M73.7691 97.0191V89.9852L67.7964 77.2515H72.5867L74.3452 81.7992C74.6281 82.5471 74.901 83.2747 75.1638 83.9822C75.4265 84.6694 75.6893 85.397 75.952 86.1651H76.0733C76.3563 85.397 76.6393 84.6694 76.9222 83.9822C77.2052 83.2747 77.4781 82.5471 77.7408 81.7992L79.5296 77.2515H84.1987L78.2259 89.9852V97.0191C78.2259 97.0191 77.2076 94.7196 75.952 94.7452C74.7213 94.7704 73.7691 97.0191 73.7691 97.0191Z" fill="white" fill-opacity="0.7"/>
</svg>
