<svg width="80" height="80" viewBox="0 0 80 80" fill="none" xmlns="http://www.w3.org/2000/svg">
<path d="M63.4997 16.3662C60.4437 13.2793 56.8036 10.8318 52.7918 9.16638C48.78 7.501 44.4767 6.65108 40.133 6.66621C21.933 6.66621 7.09967 21.4995 7.09967 39.6995C7.09967 45.5329 8.63301 51.1995 11.4997 56.1995L6.83301 73.3329L24.333 68.7329C29.1663 71.3662 34.5997 72.7662 40.133 72.7662C58.333 72.7662 73.1663 57.9329 73.1663 39.7329C73.1663 30.8995 69.733 22.5995 63.4997 16.3662ZM40.133 67.1662C35.1997 67.1662 30.3663 65.8329 26.133 63.3329L25.133 62.7329L14.733 65.4662L17.4997 55.3329L16.833 54.2995C14.0922 49.9228 12.6368 44.8637 12.633 39.6995C12.633 24.5662 24.9663 12.2329 40.0997 12.2329C47.433 12.2329 54.333 15.0995 59.4997 20.2995C62.0579 22.8461 64.0853 25.8751 65.4643 29.211C66.8433 32.5468 67.5464 36.1232 67.533 39.7329C67.5997 54.8662 55.2663 67.1662 40.133 67.1662ZM55.1997 46.6329C54.3663 46.2329 50.2997 44.2329 49.5663 43.9329C48.7997 43.6662 48.2663 43.5329 47.6997 44.3329C47.133 45.1662 45.5663 47.0329 45.0997 47.5662C44.633 48.1329 44.133 48.1995 43.2997 47.7662C42.4663 47.3662 39.7997 46.4662 36.6663 43.6662C34.1997 41.4662 32.5663 38.7662 32.0663 37.9329C31.5997 37.0995 31.9997 36.6662 32.433 36.2329C32.7997 35.8662 33.2663 35.2662 33.6663 34.7995C34.0663 34.3329 34.233 33.9662 34.4997 33.4329C34.7663 32.8662 34.633 32.3995 34.433 31.9995C34.233 31.5995 32.5663 27.5329 31.8997 25.8662C31.233 24.2662 30.533 24.4662 30.033 24.4329H28.433C27.8663 24.4329 26.9997 24.6329 26.233 25.4662C25.4997 26.2995 23.3663 28.2995 23.3663 32.3662C23.3663 36.4329 26.333 40.3662 26.733 40.8995C27.133 41.4662 32.5663 49.7995 40.833 53.3662C42.7997 54.2329 44.333 54.7329 45.533 55.0995C47.4997 55.7329 49.2997 55.6329 50.733 55.4329C52.333 55.1995 55.633 53.4329 56.2997 51.4995C56.9997 49.5662 56.9997 47.9329 56.7663 47.5662C56.533 47.1995 56.033 47.0329 55.1997 46.6329Z" fill="#F2902F"/>
</svg>
