<svg width="82" height="82" viewBox="0 0 82 82" fill="none" xmlns="http://www.w3.org/2000/svg">
<g clip-path="url(#clip0_203_89)">
<path d="M41.7592 14.0591C41.5125 13.977 41.2557 14.0585 40.9991 14.058C40.743 14.0574 40.4874 13.9747 40.2414 14.0569L11.4116 23.6682V28.2241L40.239 37.8332C40.4853 37.9154 40.7433 37.9575 40.9991 37.9575C41.2549 37.9575 41.5129 37.9152 41.7592 37.8332L70.5866 28.2241V23.6682L41.7592 14.0591Z" fill="#D36E00"/>
<path d="M70.5875 28.2239V23.668L41.7601 14.0589C41.5134 13.9768 41.2566 14.0583 41 14.0578V37.9575C41.2558 37.9575 41.5138 37.9152 41.7601 37.8332L70.5875 28.2239Z" fill="#FF9100"/>
<path d="M41.0002 33.9526H9.77051V69.3471C9.77051 70.3817 10.4321 71.299 11.4127 71.6251L40.2401 81.2342C40.4864 81.3164 40.7444 81.3585 41.0002 81.3585C41.2559 81.3585 41.514 81.3162 41.7603 81.2342L70.5877 71.6251C71.5683 71.299 72.2299 70.3817 72.2299 69.3471V33.9526H41.0002Z" fill="#FED330"/>
<path d="M70.5875 71.6249C71.5681 71.2988 72.2297 70.3815 72.2297 69.3469V33.9526H41V81.3585C41.2558 81.3585 41.5138 81.3162 41.7601 81.2342L70.5875 71.6249Z" fill="#FDB500"/>
<path d="M47.0063 0.641602C44.6737 0.641602 42.6146 1.5439 41.0006 3.26201C39.3866 1.5439 37.3275 0.641602 34.9949 0.641602C30.2802 0.641602 26.5869 4.34016 26.5869 9.06176C26.5869 14.0548 30.7062 17.2641 36.4071 21.7059C37.3953 22.4758 38.4169 23.2717 39.5 24.1382C39.9386 24.4891 40.4697 24.6646 41.0006 24.6646C41.5315 24.6646 42.0626 24.4891 42.5012 24.1382C43.5843 23.2717 44.606 22.4758 45.5941 21.7059C51.2952 17.2641 55.4143 14.0548 55.4143 9.06176C55.4143 4.34016 51.721 0.641602 47.0063 0.641602Z" fill="#FF5E95"/>
<path d="M42.5006 24.1382C43.5837 23.2717 44.6053 22.4758 45.5935 21.7059C51.2946 17.2641 55.4137 14.055 55.4137 9.06176C55.4137 4.34016 51.7204 0.641602 47.0057 0.641602C44.6731 0.641602 42.614 1.5439 41 3.26201V24.6644C41.5309 24.6646 42.062 24.4892 42.5006 24.1382Z" fill="#E63950"/>
<path d="M81.5956 39.0272L71.8263 24.6135C71.2233 23.7102 70.0903 23.3138 69.0674 23.6681L41.0001 33.0239L12.9329 23.6681C11.903 23.3162 10.7723 23.7104 10.174 24.6135L0.404692 39.0272C-0.48143 40.3588 0.157257 42.1471 1.64331 42.6376L30.6309 52.2468C31.651 52.5898 32.7859 52.2069 33.3898 51.3014L41.0002 39.8859L48.6107 51.3014C49.2151 52.2079 50.3506 52.5897 51.3696 52.2468L80.3571 42.6376C81.8458 42.1461 82.4798 40.356 81.5956 39.0272Z" fill="#FFE470"/>
<path d="M51.3694 52.2468L80.3569 42.6376C81.8457 42.1461 82.4797 40.356 81.5955 39.0272L71.8263 24.6135C71.2233 23.7102 70.0902 23.3138 69.0673 23.6681L41 33.0239V39.8859L48.6104 51.3014C49.2148 52.2079 50.3503 52.5897 51.3694 52.2468Z" fill="#FED330"/>
</g>
<defs>
<clipPath id="clip0_203_89">
<rect width="82" height="82" fill="white"/>
</clipPath>
</defs>
</svg>
