<svg width="75" height="75" viewBox="0 0 75 75" fill="none" xmlns="http://www.w3.org/2000/svg">
<g clip-path="url(#clip0_203_44)">
<path d="M37.6465 0C17.0364 0 0 16.7432 0 37.3535C0 57.9639 17.0364 75 37.6465 75C58.2565 75 75 57.9639 75 37.3535C75 16.7432 58.2565 0 37.6465 0Z" fill="#FFD931"/>
<path d="M75 37.3535C75 57.9639 58.2565 75 37.6465 75V0C58.2565 0 75 16.7432 75 37.3535Z" fill="#FFCC33"/>
<path d="M37.6465 8.78906C21.9138 8.78906 8.78906 21.6209 8.78906 37.3535C8.78906 53.0861 21.9138 66.2109 37.6465 66.2109C53.3792 66.2109 66.2109 53.0861 66.2109 37.3535C66.2109 21.6209 53.3792 8.78906 37.6465 8.78906Z" fill="#FEA832"/>
<path d="M66.2109 37.3535C66.2109 53.0861 53.3792 66.2109 37.6465 66.2109V8.78906C53.3792 8.78906 66.2109 21.6209 66.2109 37.3535Z" fill="#FE9923"/>
<path d="M28.0711 28.6876L40.08 27.2776C40.6064 27.2229 41.137 27.3882 41.5171 27.7253L50.5999 35.7069C51.3973 36.4171 52.6115 35.5561 52.2188 34.5589L45.3811 17.5811C44.9193 16.4166 43.6812 16.0309 42.6396 16.727L27.3686 26.8163C26.5011 27.4208 27.0114 28.8191 28.0711 28.6876ZM24.069 41.5323L33.1739 49.5207C33.5761 49.8647 34.1067 50.0301 34.611 49.9685L46.642 48.5654C47.7017 48.4339 48.212 49.8322 47.3224 50.4298L32.0514 60.5191C31.0098 61.2152 29.7717 60.8295 29.3099 59.665L22.4722 42.6872C22.0574 41.6831 23.2495 40.8152 24.069 41.5323ZM38.5917 32.9108L28.0391 34.6287C27.0968 34.7725 26.7311 35.9465 27.4249 36.6L35.1341 44.0079C35.3953 44.2593 35.7712 44.3764 36.129 44.3178L46.6816 42.5999C47.6238 42.4561 47.9896 41.2821 47.2958 40.6286L39.5865 33.2208C39.4557 33.096 39.2979 33.0031 39.1254 32.9494C38.9528 32.8956 38.7702 32.8824 38.5917 32.9108Z" fill="#FFE572"/>
</g>
<defs>
<clipPath id="clip0_203_44">
<rect width="75" height="75" fill="white"/>
</clipPath>
</defs>
</svg>
