<svg width="479" height="321" viewBox="0 0 479 321" fill="none" xmlns="http://www.w3.org/2000/svg">
<rect width="479" height="321" rx="40" fill="#F2902F"/>
<path d="M394.604 249.67C396.631 251.545 399.795 251.423 401.67 249.396C403.545 247.369 403.423 244.205 401.396 242.33L394.604 249.67ZM401.396 242.33L294.396 143.33L287.604 150.67L394.604 249.67L401.396 242.33Z" fill="#521D1B"/>
<path d="M204.464 232.464C202.512 234.417 202.512 237.583 204.464 239.536C206.417 241.488 209.583 241.488 211.536 239.536L204.464 232.464ZM211.536 239.536L300.536 150.536L293.464 143.464L204.464 232.464L211.536 239.536Z" fill="#521D1B"/>
<path d="M243.189 200.236C244.976 202.341 248.131 202.599 250.236 200.811C252.341 199.024 252.599 195.869 250.811 193.764L243.189 200.236ZM250.811 193.764L205.811 140.764L198.189 147.236L243.189 200.236L250.811 193.764Z" fill="#521D1B"/>
<path d="M128.464 216.464C126.512 218.417 126.512 221.583 128.464 223.536C130.417 225.488 133.583 225.488 135.536 223.536L128.464 216.464ZM135.536 223.536L211.536 147.536L204.464 140.464L128.464 216.464L135.536 223.536Z" fill="#521D1B"/>
<path d="M149.5 49L156.631 59.5544L168.603 55.2069L168.168 67.9369L180.409 71.4569L172.575 81.5L180.409 91.5431L168.168 95.0631L168.603 107.793L156.631 103.446L149.5 114L142.369 103.446L130.397 107.793L130.832 95.0631L118.591 91.5431L126.425 81.5L118.591 71.4569L130.832 67.9369L130.397 55.2069L142.369 59.5544L149.5 49Z" fill="#521D1B"/>
</svg>
