<svg width="92" height="92" viewBox="0 0 92 92" fill="none" xmlns="http://www.w3.org/2000/svg">
<path d="M34.5003 54.6248C33.1587 54.6248 32.024 54.161 31.0963 53.2333C30.1687 52.3057 29.7061 51.1723 29.7087 49.8332C29.7087 48.4915 30.1725 47.3568 31.1002 46.4292C32.0278 45.5015 33.1612 45.0389 34.5003 45.0415C35.842 45.0415 36.9767 45.5053 37.9043 46.433C38.832 47.3607 39.2945 48.4941 39.292 49.8332C39.292 51.1748 38.8282 52.3095 37.9005 53.2372C36.9728 54.1648 35.8394 54.6274 34.5003 54.6248ZM57.5003 54.6248C56.1587 54.6248 55.024 54.161 54.0963 53.2333C53.1687 52.3057 52.7061 51.1723 52.7087 49.8332C52.7087 48.4915 53.1725 47.3568 54.1002 46.4292C55.0278 45.5015 56.1612 45.0389 57.5003 45.0415C58.842 45.0415 59.9767 45.5053 60.9043 46.433C61.832 47.3607 62.2945 48.4941 62.292 49.8332C62.292 51.1748 61.8282 52.3095 60.9005 53.2372C59.9728 54.1648 58.8394 54.6274 57.5003 54.6248ZM46.0003 76.6665C54.5614 76.6665 61.8128 73.6957 67.7545 67.754C73.6962 61.8123 76.667 54.5609 76.667 45.9998C76.667 44.4665 76.5712 42.9804 76.3795 41.5417C76.1878 40.1029 75.8364 38.7139 75.3253 37.3748C73.9837 37.6943 72.642 37.9345 71.3003 38.0955C69.9587 38.2565 68.5531 38.3357 67.0837 38.3332C61.2698 38.3332 55.7753 37.0873 50.6003 34.5957C45.4253 32.104 41.017 28.6221 37.3753 24.1498C35.3309 29.1332 32.4073 33.4623 28.6047 37.1372C24.802 40.8121 20.3783 43.5746 15.3337 45.4248V45.9998C15.3337 54.5609 18.3045 61.8123 24.2462 67.754C30.1878 73.6957 37.4392 76.6665 46.0003 76.6665ZM46.0003 84.3332C40.6975 84.3332 35.7142 83.3263 31.0503 81.3125C26.3864 79.2987 22.3295 76.5681 18.8795 73.1207C15.4295 69.6707 12.6989 65.6137 10.6877 60.9498C8.67644 56.2859 7.66955 51.3026 7.66699 45.9998C7.66699 40.6971 8.67388 35.7137 10.6877 31.0498C12.7014 26.3859 15.432 22.329 18.8795 18.879C22.3295 15.429 26.3864 12.6984 31.0503 10.6872C35.7142 8.67595 40.6975 7.66906 46.0003 7.6665C51.3031 7.6665 56.2864 8.67339 60.9503 10.6872C65.6142 12.7009 69.6712 15.4316 73.1212 18.879C76.5712 22.329 79.303 26.3859 81.3168 31.0498C83.3306 35.7137 84.3362 40.6971 84.3337 45.9998C84.3337 51.3026 83.3268 56.2859 81.313 60.9498C79.2992 65.6137 76.5686 69.6707 73.1212 73.1207C69.6712 76.5707 65.6142 79.3026 60.9503 81.3163C56.2864 83.3301 51.3031 84.3357 46.0003 84.3332Z" fill="#521D1B"/>
</svg>
