<svg width="75" height="75" viewBox="0 0 75 75" fill="none" xmlns="http://www.w3.org/2000/svg">
<path d="M22.1191 31.5674H12.7441C11.5307 31.5674 10.5469 30.5836 10.5469 29.3701V15.4541C10.5469 14.2406 11.5307 13.2568 12.7441 13.2568H22.1191C23.3326 13.2568 24.3164 14.2406 24.3164 15.4541V29.3701C24.3164 30.5836 23.3326 31.5674 22.1191 31.5674Z" fill="#C9E6FE"/>
<path d="M24.4629 15.4541H10.4004C9.18691 15.4541 8.20312 14.4703 8.20312 13.2568V8.27637C8.20312 7.06289 9.18691 6.0791 10.4004 6.0791H24.4629C25.6764 6.0791 26.6602 7.06289 26.6602 8.27637V13.2568C26.6602 14.4703 25.6764 15.4541 24.4629 15.4541Z" fill="#B2DCFD"/>
<path d="M12.7441 27.1729C5.72769 27.1729 0 32.8793 0 39.917C0 46.9598 5.73237 52.6611 12.7441 52.6611C13.957 52.6611 14.9414 51.6768 14.9414 50.4639V29.3701C14.9414 28.1572 13.957 27.1729 12.7441 27.1729Z" fill="#DF4D5F"/>
<path d="M71.4846 52.6611V66.7236H2.20046C0.624285 66.7236 -0.439192 65.1123 0.178972 63.6636L4.30837 53.9956C4.65407 53.1855 5.44948 52.6611 6.32839 52.6611H71.4846Z" fill="#DF4D5F"/>
<path d="M42.1875 52.6611H71.4844V66.7236H42.1875V52.6611Z" fill="#D20041"/>
<path d="M71.3379 12.9639V52.6611C7.20132 52.6611 12.0864 52.7426 10.5469 52.4707V27.1729H36.4746V12.9639C36.4746 11.751 37.459 10.7666 38.6719 10.7666H69.1406C70.3535 10.7666 71.3379 11.751 71.3379 12.9639Z" fill="#FED330"/>
<path d="M71.3379 12.9639V52.6611H42.1875V10.7666H69.1406C70.3535 10.7666 71.3379 11.751 71.3379 12.9639Z" fill="#FDB500"/>
<path d="M18.8965 43.2861C17.683 43.2861 16.6992 42.3023 16.6992 41.0889V38.7451C16.6992 37.5316 17.683 36.5479 18.8965 36.5479C20.11 36.5479 21.0938 37.5316 21.0938 38.7451V41.0889C21.0938 42.3023 20.11 43.2861 18.8965 43.2861Z" fill="#FDB500"/>
<path d="M28.2715 43.2861C27.058 43.2861 26.0742 42.3023 26.0742 41.0889V38.7451C26.0742 37.5316 27.058 36.5479 28.2715 36.5479C29.485 36.5479 30.4688 37.5316 30.4688 38.7451V41.0889C30.4688 42.3023 29.485 43.2861 28.2715 43.2861Z" fill="#FDB500"/>
<path d="M72.8027 1.3916H35.1562C33.9434 1.3916 32.959 2.37598 32.959 3.58887V10.7666C32.959 11.9795 33.9434 12.9639 35.1562 12.9639H72.8027C74.0156 12.9639 75 11.9795 75 10.7666V3.58887C75 2.37598 74.0156 1.3916 72.8027 1.3916Z" fill="#FF9100"/>
<path d="M75 3.58887V10.7666C75 11.9795 74.0156 12.9639 72.8027 12.9639H42.1875V1.3916H72.8027C74.0156 1.3916 75 2.37598 75 3.58887Z" fill="#D36E00"/>
<path d="M59.7656 36.4014H48.0469V28.1982C48.0469 24.9623 50.6703 22.3389 53.9062 22.3389C57.1333 22.3389 59.7656 24.9533 59.7656 28.1982V36.4014Z" fill="#E0F1FB"/>
<path d="M59.7656 38.5986H48.0469C46.8334 38.5986 45.8496 37.6148 45.8496 36.4014V28.1982C45.8496 23.7558 49.4638 20.1416 53.9062 20.1416C58.3487 20.1416 61.9629 23.7558 61.9629 28.1982V36.4014C61.9629 37.6148 60.9791 38.5986 59.7656 38.5986ZM50.2441 34.2041H57.5684V28.1982C57.5684 26.179 55.9255 24.5361 53.9062 24.5361C51.887 24.5361 50.2441 26.179 50.2441 28.1982V34.2041Z" fill="#FF9100"/>
<path d="M61.084 73.6084C53.4107 73.6084 47.168 67.3657 47.168 59.6924C47.168 52.0191 53.4107 45.7764 61.084 45.7764C68.7573 45.7764 75 52.0191 75 59.6924C75 67.3657 68.7573 73.6084 61.084 73.6084Z" fill="#282E66"/>
<path d="M61.084 62.0361C62.3784 62.0361 63.4277 60.9868 63.4277 59.6924C63.4277 58.398 62.3784 57.3486 61.084 57.3486C59.7896 57.3486 58.7402 58.398 58.7402 59.6924C58.7402 60.9868 59.7896 62.0361 61.084 62.0361Z" fill="#54489B"/>
<path d="M24.6094 73.6084C18.2284 73.6084 13.0371 68.4171 13.0371 62.0361C13.0371 55.6551 18.2284 50.4639 24.6094 50.4639C30.9904 50.4639 36.1816 55.6551 36.1816 62.0361C36.1816 68.4171 30.9904 73.6084 24.6094 73.6084Z" fill="#463D83"/>
<path d="M24.6094 64.3799C25.9038 64.3799 26.9531 63.3306 26.9531 62.0361C26.9531 60.7417 25.9038 59.6924 24.6094 59.6924C23.315 59.6924 22.2656 60.7417 22.2656 62.0361C22.2656 63.3306 23.315 64.3799 24.6094 64.3799Z" fill="#54489B"/>
</svg>
